<?xml version="1.0" encoding="UTF-8"?>
<!DOCTYPE svg PUBLIC "-//W3C//DTD SVG 1.1//EN" "http://www.w3.org/Graphics/SVG/1.1/DTD/svg11.dtd">
<svg xmlns="http://www.w3.org/2000/svg" version="1.1" width="192px" height="192px" style="shape-rendering:geometricPrecision; text-rendering:geometricPrecision; image-rendering:optimizeQuality; fill-rule:evenodd; clip-rule:evenodd" xmlns:xlink="http://www.w3.org/1999/xlink">
<g><path style="opacity:0.985" fill="#f8fcfc" d="M 82.5,-0.5 C 91.1667,-0.5 99.8333,-0.5 108.5,-0.5C 131.503,3.0009 150.836,13.3342 166.5,30.5C 165.153,29.9717 163.819,29.805 162.5,30C 166.783,33.4454 170.117,37.6121 172.5,42.5C 171.218,44.1792 170.218,46.0126 169.5,48C 167.288,48.7891 165.288,48.6225 163.5,47.5C 165.288,47.7852 166.955,47.4519 168.5,46.5C 167.975,45.8076 167.308,45.3076 166.5,45C 170.498,44.5071 171.332,42.6738 169,39.5C 164.665,33.1277 158.832,29.2943 151.5,28C 139.9,35.6815 133.234,46.5149 131.5,60.5C 130.514,64.97 130.181,69.6367 130.5,74.5C 130.436,78.2198 129.936,81.8865 129,85.5C 127.268,90.6165 123.768,92.4499 118.5,91C 109.676,85.339 100.176,81.1723 90,78.5C 82.7088,80.2944 76.5422,83.961 71.5,89.5C 67.043,93.1874 62.043,94.1874 56.5,92.5C 48.6854,86.2064 46.0187,78.2064 48.5,68.5C 49.4916,68.6716 50.1583,68.3382 50.5,67.5C 53.8333,68.5 57.1667,69.5 60.5,70.5C 67.2105,70.713 73.8772,70.3796 80.5,69.5C 85.439,70.6481 88.939,68.9814 91,64.5C 91.6232,56.135 91.2898,47.8016 90,39.5C 88.3304,35.6404 85.497,33.1404 81.5,32C 76.2355,30.5172 70.9021,29.3505 65.5,28.5C 60.0138,30.6478 55.3472,33.9812 51.5,38.5C 55.0591,36.1357 58.8924,34.1357 63,32.5C 64.8231,33.6512 66.6564,34.8179 68.5,36C 72.211,36.1747 75.8776,36.6747 79.5,37.5C 76.1032,39.5259 72.7699,41.5259 69.5,43.5C 64.9113,44.614 61.2446,46.9474 58.5,50.5C 54.3016,48.0361 49.8016,46.0361 45,44.5C 44.2352,44.5699 43.7352,44.9033 43.5,45.5C 40.9382,48.3009 39.7716,51.6343 40,55.5C 40.2784,54.5842 40.7784,53.9175 41.5,53.5C 41.4796,58.1338 42.6462,62.4671 45,66.5C 45.6667,71.8333 45.6667,77.1667 45,82.5C 43.8783,84.6238 42.3783,86.4571 40.5,88C 36.5352,89.9934 32.5352,91.9934 28.5,94C 25.141,96.0342 24.8076,98.3676 27.5,101C 30.8981,102.357 33.8981,104.19 36.5,106.5C 35.2511,108.136 33.5844,109.303 31.5,110C 21.839,111.413 13.6723,115.58 7,122.5C 6.15292,126.072 6.65292,129.406 8.5,132.5C 7.83333,132.5 7.16667,132.5 6.5,132.5C 3.21499,124.678 0.88166,116.678 -0.5,108.5C -0.5,99.8333 -0.5,91.1667 -0.5,82.5C 8.83333,36.5 36.5,8.83333 82.5,-0.5 Z"/></g>
<g><path style="opacity:1" fill="#86827e" d="M 51.5,38.5 C 50.4382,40.7565 48.7715,41.9232 46.5,42C 47.7893,40.1978 49.4559,39.0312 51.5,38.5 Z"/></g>
<g><path style="opacity:1" fill="#2d2a2b" d="M 80.5,69.5 C 81.2001,65.0012 83.7001,63.3345 88,64.5C 91.0328,59.9163 91.1994,55.2496 88.5,50.5C 89.4847,48.9017 89.6514,47.235 89,45.5C 88.6667,45.8333 88.3333,46.1667 88,46.5C 87.6258,45.5838 87.1258,44.7504 86.5,44C 84.4259,44.2273 82.4259,44.0606 80.5,43.5C 79.1936,44.9122 78.3603,46.5789 78,48.5C 77.6667,48.1667 77.3333,47.8333 77,47.5C 76.3333,48.8333 75.6667,50.1667 75,51.5C 74.3741,49.0087 73.5407,49.0087 72.5,51.5C 71.5,50.5 70.5,49.5 69.5,48.5C 72.0472,46.5456 72.0472,44.8789 69.5,43.5C 72.7699,41.5259 76.1032,39.5259 79.5,37.5C 75.8776,36.6747 72.211,36.1747 68.5,36C 66.6564,34.8179 64.8231,33.6512 63,32.5C 58.8924,34.1357 55.0591,36.1357 51.5,38.5C 55.3472,33.9812 60.0138,30.6478 65.5,28.5C 70.9021,29.3505 76.2355,30.5172 81.5,32C 85.497,33.1404 88.3304,35.6404 90,39.5C 91.2898,47.8016 91.6232,56.135 91,64.5C 88.939,68.9814 85.439,70.6481 80.5,69.5 Z"/></g>
<g><path style="opacity:1" fill="#a4a3a2" d="M 85.5,36.5 C 87.332,37.1405 87.6653,38.1405 86.5,39.5C 85.6143,38.675 85.281,37.675 85.5,36.5 Z"/></g>
<g><path style="opacity:1" fill="#242221" d="M 69.5,43.5 C 72.0472,44.8789 72.0472,46.5456 69.5,48.5C 70.5,49.5 71.5,50.5 72.5,51.5C 73.5407,49.0087 74.3741,49.0087 75,51.5C 75.6667,50.1667 76.3333,48.8333 77,47.5C 77.3333,47.8333 77.6667,48.1667 78,48.5C 78.3603,46.5789 79.1936,44.9122 80.5,43.5C 82.4259,44.0606 84.4259,44.2273 86.5,44C 87.1258,44.7504 87.6258,45.5838 88,46.5C 88.3333,46.1667 88.6667,45.8333 89,45.5C 89.6514,47.235 89.4847,48.9017 88.5,50.5C 91.1994,55.2496 91.0328,59.9163 88,64.5C 83.7001,63.3345 81.2001,65.0012 80.5,69.5C 73.8772,70.3796 67.2105,70.713 60.5,70.5C 60.631,69.7611 60.4643,69.0944 60,68.5C 58.1879,67.0229 56.3545,65.6896 54.5,64.5C 56.2655,61.8774 56.9321,58.8774 56.5,55.5C 57.8583,56.6256 59.1916,56.6256 60.5,55.5C 57.8068,54.4682 57.1402,52.8015 58.5,50.5C 61.2446,46.9474 64.9113,44.614 69.5,43.5 Z"/></g>
<g><path style="opacity:0.986" fill="#f8fdfd" d="M 166.5,30.5 C 180.198,45.2298 188.531,62.5631 191.5,82.5C 191.5,91.1667 191.5,99.8333 191.5,108.5C 182.289,154.045 154.955,181.711 109.5,191.5C 100.167,191.5 90.8333,191.5 81.5,191.5C 46.2346,184.903 21.2346,165.236 6.5,132.5C 7.16667,132.5 7.83333,132.5 8.5,132.5C 9.85408,134.696 11.8541,136.196 14.5,137C 21.1497,136.947 27.8164,136.78 34.5,136.5C 39.6295,140.812 43.4628,146.146 46,152.5C 50.517,156.242 55.6837,157.409 61.5,156C 66.7564,153.859 72.0897,152.026 77.5,150.5C 83.7974,149.68 90.1308,149.347 96.5,149.5C 101.219,149.629 105.552,150.962 109.5,153.5C 112.973,155.637 115.306,158.637 116.5,162.5C 116.335,165.518 116.502,168.518 117,171.5C 126.072,175.022 127.739,172.689 122,164.5C 121.505,162.527 121.338,160.527 121.5,158.5C 122.11,157.609 122.443,156.609 122.5,155.5C 130.137,149.895 138.803,146.728 148.5,146C 150.066,145.392 151.4,144.558 152.5,143.5C 153.468,141.393 153.802,139.059 153.5,136.5C 157.098,131.726 160.931,127.06 165,122.5C 170.086,113.243 168.086,106.243 159,101.5C 157.333,95.8333 153.667,92.1667 148,90.5C 145.961,80.9216 145.295,71.2549 146,61.5C 147.247,55.0067 150.08,49.34 154.5,44.5C 157.314,46.1046 160.314,47.1046 163.5,47.5C 165.288,48.6225 167.288,48.7891 169.5,48C 170.218,46.0126 171.218,44.1792 172.5,42.5C 170.117,37.6121 166.783,33.4454 162.5,30C 163.819,29.805 165.153,29.9717 166.5,30.5 Z"/></g>
<g><path style="opacity:1" fill="#5f5a5a" d="M 43.5,45.5 C 43.6287,47.2161 43.962,48.8828 44.5,50.5C 42.5,50.5 41.5,51.5 41.5,53.5C 40.7784,53.9175 40.2784,54.5842 40,55.5C 39.7716,51.6343 40.9382,48.3009 43.5,45.5 Z"/></g>
<g><path style="opacity:1" fill="#dfdddc" d="M 44.5,50.5 C 46.7727,50.9568 48.106,52.2901 48.5,54.5C 46.4168,52.3956 44.0835,52.0623 41.5,53.5C 41.5,51.5 42.5,50.5 44.5,50.5 Z"/></g>
<g><path style="opacity:1" fill="#d5d4d4" d="M 56.5,55.5 C 56.9321,58.8774 56.2655,61.8774 54.5,64.5C 54.4733,58.8314 52.4733,53.8314 48.5,49.5C 49.0016,48.479 49.6683,48.3123 50.5,49C 52.7341,51.0627 54.7341,53.2294 56.5,55.5 Z"/></g>
<g><path style="opacity:1" fill="#323034" d="M 58.5,50.5 C 57.1402,52.8015 57.8068,54.4682 60.5,55.5C 59.1916,56.6256 57.8583,56.6256 56.5,55.5C 54.7341,53.2294 52.7341,51.0627 50.5,49C 49.6683,48.3123 49.0016,48.479 48.5,49.5C 52.4733,53.8314 54.4733,58.8314 54.5,64.5C 56.3545,65.6896 58.1879,67.0229 60,68.5C 60.4643,69.0944 60.631,69.7611 60.5,70.5C 57.1667,69.5 53.8333,68.5 50.5,67.5C 51.4922,64.2214 51.6588,60.8881 51,57.5C 50.6232,56.0577 49.7899,55.0577 48.5,54.5C 48.106,52.2901 46.7727,50.9568 44.5,50.5C 43.962,48.8828 43.6287,47.2161 43.5,45.5C 43.7352,44.9033 44.2352,44.5699 45,44.5C 49.8016,46.0361 54.3016,48.0361 58.5,50.5 Z"/></g>
<g><path style="opacity:1" fill="#bdbbb9" d="M 48.5,54.5 C 49.7899,55.0577 50.6232,56.0577 51,57.5C 51.6588,60.8881 51.4922,64.2214 50.5,67.5C 50.1583,68.3382 49.4916,68.6716 48.5,68.5C 49.7624,63.8188 49.7624,59.1521 48.5,54.5 Z"/></g>
<g><path style="opacity:1" fill="#6d6864" d="M 131.5,60.5 C 130.956,64.6732 131.623,68.5065 133.5,72C 132.627,73.045 131.627,73.8783 130.5,74.5C 130.181,69.6367 130.514,64.97 131.5,60.5 Z"/></g>
<g><path style="opacity:1" fill="#252322" d="M 163.5,47.5 C 160.314,47.1046 157.314,46.1046 154.5,44.5C 150.08,49.34 147.247,55.0067 146,61.5C 145.295,71.2549 145.961,80.9216 148,90.5C 153.667,92.1667 157.333,95.8333 159,101.5C 168.086,106.243 170.086,113.243 165,122.5C 160.931,127.06 157.098,131.726 153.5,136.5C 152.566,137.568 152.232,138.901 152.5,140.5C 151.603,139.402 150.77,139.402 150,140.5C 149.667,136.5 149.333,132.5 149,128.5C 147.961,129.244 147.461,130.244 147.5,131.5C 147.5,134.5 147.5,137.5 147.5,140.5C 137.023,140.873 128.023,144.54 120.5,151.5C 119.833,151.833 119.167,152.167 118.5,152.5C 116.069,151.259 116.069,150.092 118.5,149C 117.572,148.612 116.905,147.945 116.5,147C 117.505,145.328 118.839,143.995 120.5,143C 119.911,139.654 120.578,139.654 122.5,143C 125.449,143.847 127.782,143.014 129.5,140.5C 126.588,135.281 127.088,134.614 131,138.5C 131.284,136.114 132.284,135.448 134,136.5C 134.667,135.833 134.667,135.167 134,134.5C 132.992,134.018 131.825,133.852 130.5,134C 129.498,132.328 128.332,131.162 127,130.5C 126.667,130.833 126.333,131.167 126,131.5C 125.421,127.614 124.588,127.614 123.5,131.5C 122.335,132.584 121.002,133.417 119.5,134C 122.941,134.836 123.108,135.669 120,136.5C 117.812,136.646 116.479,135.646 116,133.5C 115.25,134.126 114.416,134.626 113.5,135C 114.711,135.893 114.711,136.726 113.5,137.5C 112.197,136.282 111.197,136.615 110.5,138.5C 107.921,137.112 107.921,135.612 110.5,134C 109.552,133.517 108.552,133.351 107.5,133.5C 107.032,138.688 106.032,138.688 104.5,133.5C 105.891,133.891 106.891,133.058 107.5,131C 106.572,130.612 105.905,129.945 105.5,129C 106.573,127.584 106.573,126.25 105.5,125C 106.094,124.536 106.761,124.369 107.5,124.5C 108.164,125.648 108.331,126.981 108,128.5C 109.385,127.449 110.385,126.116 111,124.5C 111.182,127.226 111.682,129.893 112.5,132.5C 112.972,130.556 114.305,128.722 116.5,127C 115.72,125.927 115.887,124.76 117,123.5C 118.929,125.684 120.763,125.35 122.5,122.5C 120.954,121.316 119.287,120.316 117.5,119.5C 117.532,117.308 117.698,114.974 118,112.5C 116.139,117.226 113.972,117.559 111.5,113.5C 110.826,111.976 109.826,110.642 108.5,109.5C 108.709,108.914 109.043,108.414 109.5,108C 108.338,107.173 107.171,106.34 106,105.5C 103.73,104.725 101.563,104.392 99.5,104.5C 100.833,103.833 102.167,103.167 103.5,102.5C 102.385,101.402 102.385,100.235 103.5,99C 101.381,97.4475 101.381,95.6142 103.5,93.5C 104.895,94.8146 105.895,94.4812 106.5,92.5C 105.167,90.5 103.5,88.8333 101.5,87.5C 100.833,88.1667 100.167,88.8333 99.5,89.5C 97.3618,87.9674 96.6952,86.1341 97.5,84C 92.5429,82.1389 87.5429,82.1389 82.5,84C 82.8333,84.3333 83.1667,84.6667 83.5,85C 82.3523,86.6487 81.019,88.1487 79.5,89.5C 78.0172,87.0542 76.8505,87.3876 76,90.5C 75.3333,89.8333 74.6667,89.1667 74,88.5C 73.3292,89.2524 72.4959,89.5858 71.5,89.5C 76.5422,83.961 82.7088,80.2944 90,78.5C 100.176,81.1723 109.676,85.339 118.5,91C 123.768,92.4499 127.268,90.6165 129,85.5C 129.936,81.8865 130.436,78.2198 130.5,74.5C 131.627,73.8783 132.627,73.045 133.5,72C 131.623,68.5065 130.956,64.6732 131.5,60.5C 133.234,46.5149 139.9,35.6815 151.5,28C 158.832,29.2943 164.665,33.1277 169,39.5C 171.332,42.6738 170.498,44.5071 166.5,45C 167.308,45.3076 167.975,45.8076 168.5,46.5C 166.955,47.4519 165.288,47.7852 163.5,47.5 Z"/></g>
<g><path style="opacity:1" fill="#e9e8e8" d="M 146.5,43.5 C 147.873,43.3433 149.207,43.51 150.5,44C 144.967,51.9159 141.8,60.7492 141,70.5C 139.077,60.6005 140.91,51.6005 146.5,43.5 Z"/></g>
<g><path style="opacity:1" fill="#acabaa" d="M 158.5,35.5 C 159.5,35.5 160.5,35.5 161.5,35.5C 160.754,39.31 159.754,39.31 158.5,35.5 Z"/></g>
<g><path style="opacity:1" fill="#22201f" d="M 111.5,113.5 C 111.5,115.167 111.5,116.833 111.5,118.5C 113.942,118.119 114.609,118.786 113.5,120.5C 111.004,122.397 108.837,122.397 107,120.5C 106.5,120.833 106,121.167 105.5,121.5C 106.612,122.265 107.279,123.265 107.5,124.5C 106.761,124.369 106.094,124.536 105.5,125C 106.573,126.25 106.573,127.584 105.5,129C 105.905,129.945 106.572,130.612 107.5,131C 106.891,133.058 105.891,133.891 104.5,133.5C 106.032,138.688 107.032,138.688 107.5,133.5C 108.552,133.351 109.552,133.517 110.5,134C 107.921,135.612 107.921,137.112 110.5,138.5C 111.197,136.615 112.197,136.282 113.5,137.5C 114.711,136.726 114.711,135.893 113.5,135C 114.416,134.626 115.25,134.126 116,133.5C 116.479,135.646 117.812,136.646 120,136.5C 123.108,135.669 122.941,134.836 119.5,134C 121.002,133.417 122.335,132.584 123.5,131.5C 124.588,127.614 125.421,127.614 126,131.5C 126.333,131.167 126.667,130.833 127,130.5C 128.332,131.162 129.498,132.328 130.5,134C 131.825,133.852 132.992,134.018 134,134.5C 134.667,135.167 134.667,135.833 134,136.5C 132.284,135.448 131.284,136.114 131,138.5C 127.088,134.614 126.588,135.281 129.5,140.5C 127.782,143.014 125.449,143.847 122.5,143C 120.578,139.654 119.911,139.654 120.5,143C 118.839,143.995 117.505,145.328 116.5,147C 116.905,147.945 117.572,148.612 118.5,149C 116.069,150.092 116.069,151.259 118.5,152.5C 117.608,154.813 118.442,155.147 121,153.5C 122.03,153.836 122.53,154.503 122.5,155.5C 122.443,156.609 122.11,157.609 121.5,158.5C 120.717,160.343 120.05,162.343 119.5,164.5C 120.433,165.985 120.1,167.318 118.5,168.5C 117.833,166.5 117.167,164.5 116.5,162.5C 115.306,158.637 112.973,155.637 109.5,153.5C 111.06,151.871 110.727,150.704 108.5,150C 106.385,149.443 104.385,148.609 102.5,147.5C 100.902,148.485 99.235,148.651 97.5,148C 99.158,147.275 99.658,146.108 99,144.5C 98.6924,145.308 98.1924,145.975 97.5,146.5C 96.1667,145.833 94.8333,145.167 93.5,144.5C 92.7506,146.012 91.584,147.012 90,147.5C 87.6801,146.445 85.5134,145.112 83.5,143.5C 81.7445,146.023 79.9112,146.023 78,143.5C 77.2352,143.57 76.7352,143.903 76.5,144.5C 72.2979,146.234 67.9645,147.567 63.5,148.5C 62.5416,148.047 61.7083,147.381 61,146.5C 60,147.167 59,147.833 58,148.5C 55.821,147.604 53.9876,146.271 52.5,144.5C 51.6043,145.506 50.9377,145.506 50.5,144.5C 52.0777,143.702 53.7444,143.202 55.5,143C 53.1898,141.363 51.6898,139.196 51,136.5C 48.8089,138.956 46.8089,141.622 45,144.5C 44.7046,141.568 43.2046,139.568 40.5,138.5C 41.6825,136.355 43.1825,136.355 45,138.5C 44.6834,136.227 43.1834,135.227 40.5,135.5C 40.719,134.325 40.3857,133.325 39.5,132.5C 38.9955,135.342 37.3289,136.675 34.5,136.5C 27.8164,136.78 21.1497,136.947 14.5,137C 11.8541,136.196 9.85408,134.696 8.5,132.5C 6.65292,129.406 6.15292,126.072 7,122.5C 13.6723,115.58 21.839,111.413 31.5,110C 33.5844,109.303 35.2511,108.136 36.5,106.5C 39.1331,105.189 39.1331,103.689 36.5,102C 37.7112,101.107 37.7112,100.274 36.5,99.5C 35.8076,100.025 35.3076,100.692 35,101.5C 34.5,100.333 33.6667,99.5 32.5,99C 33.8333,98.3333 34.8333,97.3333 35.5,96C 37.1346,95.4604 38.4679,95.9604 39.5,97.5C 40.1924,96.9747 40.6924,96.3081 41,95.5C 41.7504,96.1258 42.5838,96.6258 43.5,97C 42.1671,98.6373 40.8337,99.4707 39.5,99.5C 39.3151,101.486 39.9818,103.486 41.5,105.5C 42.7112,104.726 42.7112,103.893 41.5,103C 42.4162,102.626 43.2496,102.126 44,101.5C 44.3678,102.91 45.2011,103.91 46.5,104.5C 47.9462,101.758 50.1128,99.7578 53,98.5C 54.4728,98.9031 55.8061,99.5697 57,100.5C 57.2713,98.193 56.1047,97.0264 53.5,97C 52.2528,95.5064 52.2528,94.0064 53.5,92.5C 53.6691,93.3966 54.0024,94.3966 54.5,95.5C 55.1757,94.3984 55.8423,93.3984 56.5,92.5C 62.043,94.1874 67.043,93.1874 71.5,89.5C 72.4959,89.5858 73.3292,89.2524 74,88.5C 74.6667,89.1667 75.3333,89.8333 76,90.5C 76.8505,87.3876 78.0172,87.0542 79.5,89.5C 81.019,88.1487 82.3523,86.6487 83.5,85C 83.1667,84.6667 82.8333,84.3333 82.5,84C 87.5429,82.1389 92.5429,82.1389 97.5,84C 96.6952,86.1341 97.3618,87.9674 99.5,89.5C 100.167,88.8333 100.833,88.1667 101.5,87.5C 103.5,88.8333 105.167,90.5 106.5,92.5C 105.895,94.4812 104.895,94.8146 103.5,93.5C 101.381,95.6142 101.381,97.4475 103.5,99C 102.385,100.235 102.385,101.402 103.5,102.5C 102.167,103.167 100.833,103.833 99.5,104.5C 101.563,104.392 103.73,104.725 106,105.5C 107.171,106.34 108.338,107.173 109.5,108C 109.043,108.414 108.709,108.914 108.5,109.5C 109.826,110.642 110.826,111.976 111.5,113.5 Z"/></g>
<g><path style="opacity:1" fill="#292626" d="M 48.5,54.5 C 49.7624,59.1521 49.7624,63.8188 48.5,68.5C 46.0187,78.2064 48.6854,86.2064 56.5,92.5C 55.8423,93.3984 55.1757,94.3984 54.5,95.5C 54.0024,94.3966 53.6691,93.3966 53.5,92.5C 52.2528,94.0064 52.2528,95.5064 53.5,97C 56.1047,97.0264 57.2713,98.193 57,100.5C 55.8061,99.5697 54.4728,98.9031 53,98.5C 50.1128,99.7578 47.9462,101.758 46.5,104.5C 45.2011,103.91 44.3678,102.91 44,101.5C 43.2496,102.126 42.4162,102.626 41.5,103C 42.7112,103.893 42.7112,104.726 41.5,105.5C 39.9818,103.486 39.3151,101.486 39.5,99.5C 40.8337,99.4707 42.1671,98.6373 43.5,97C 42.5838,96.6258 41.7504,96.1258 41,95.5C 40.6924,96.3081 40.1924,96.9747 39.5,97.5C 38.4679,95.9604 37.1346,95.4604 35.5,96C 34.8333,97.3333 33.8333,98.3333 32.5,99C 33.6667,99.5 34.5,100.333 35,101.5C 35.3076,100.692 35.8076,100.025 36.5,99.5C 37.7112,100.274 37.7112,101.107 36.5,102C 39.1331,103.689 39.1331,105.189 36.5,106.5C 33.8981,104.19 30.8981,102.357 27.5,101C 24.8076,98.3676 25.141,96.0342 28.5,94C 32.5352,91.9934 36.5352,89.9934 40.5,88C 42.3783,86.4571 43.8783,84.6238 45,82.5C 45.6667,77.1667 45.6667,71.8333 45,66.5C 42.6462,62.4671 41.4796,58.1338 41.5,53.5C 44.0835,52.0623 46.4168,52.3956 48.5,54.5 Z"/></g>
<g><path style="opacity:1" fill="#3c3936" d="M 107.5,124.5 C 107.279,123.265 106.612,122.265 105.5,121.5C 106,121.167 106.5,120.833 107,120.5C 108.837,122.397 111.004,122.397 113.5,120.5C 114.609,118.786 113.942,118.119 111.5,118.5C 111.5,116.833 111.5,115.167 111.5,113.5C 113.972,117.559 116.139,117.226 118,112.5C 117.698,114.974 117.532,117.308 117.5,119.5C 119.287,120.316 120.954,121.316 122.5,122.5C 120.763,125.35 118.929,125.684 117,123.5C 115.887,124.76 115.72,125.927 116.5,127C 114.305,128.722 112.972,130.556 112.5,132.5C 111.682,129.893 111.182,127.226 111,124.5C 110.385,126.116 109.385,127.449 108,128.5C 108.331,126.981 108.164,125.648 107.5,124.5 Z"/></g>
<g><path style="opacity:1" fill="#ccc8c3" d="M 11.5,128.5 C 14.6045,131.034 18.2712,132.201 22.5,132C 17.364,134.829 13.6973,133.662 11.5,128.5 Z"/></g>
<g><path style="opacity:1" fill="#383434" d="M 152.5,140.5 C 151.167,141.5 151.167,142.5 152.5,143.5C 151.4,144.558 150.066,145.392 148.5,146C 138.803,146.728 130.137,149.895 122.5,155.5C 122.53,154.503 122.03,153.836 121,153.5C 118.442,155.147 117.608,154.813 118.5,152.5C 119.167,152.167 119.833,151.833 120.5,151.5C 128.89,146.78 137.89,143.614 147.5,142C 148.82,138.399 148.82,134.899 147.5,131.5C 147.461,130.244 147.961,129.244 149,128.5C 149.333,132.5 149.667,136.5 150,140.5C 150.77,139.402 151.603,139.402 152.5,140.5 Z"/></g>
<g><path style="opacity:1" fill="#7b7877" d="M 153.5,136.5 C 153.802,139.059 153.468,141.393 152.5,143.5C 151.167,142.5 151.167,141.5 152.5,140.5C 152.232,138.901 152.566,137.568 153.5,136.5 Z"/></g>
<g><path style="opacity:1" fill="#cac7c4" d="M 147.5,131.5 C 148.82,134.899 148.82,138.399 147.5,142C 137.89,143.614 128.89,146.78 120.5,151.5C 128.023,144.54 137.023,140.873 147.5,140.5C 147.5,137.5 147.5,134.5 147.5,131.5 Z"/></g>
<g><path style="opacity:1" fill="#322f2e" d="M 63.5,148.5 C 59.8064,150.412 55.8064,150.912 51.5,150C 49.6411,148.442 48.1411,146.609 47,144.5C 47.7709,149.757 50.9376,152.424 56.5,152.5C 64.1892,151.103 71.5226,148.603 78.5,145C 77.9056,144.536 77.2389,144.369 76.5,144.5C 76.7352,143.903 77.2352,143.57 78,143.5C 79.9112,146.023 81.7445,146.023 83.5,143.5C 85.5134,145.112 87.6801,146.445 90,147.5C 91.584,147.012 92.7506,146.012 93.5,144.5C 94.8333,145.167 96.1667,145.833 97.5,146.5C 98.1924,145.975 98.6924,145.308 99,144.5C 99.658,146.108 99.158,147.275 97.5,148C 99.235,148.651 100.902,148.485 102.5,147.5C 104.385,148.609 106.385,149.443 108.5,150C 110.727,150.704 111.06,151.871 109.5,153.5C 105.552,150.962 101.219,149.629 96.5,149.5C 94.0221,148.836 91.3555,148.503 88.5,148.5C 84.5313,148.294 80.8646,148.961 77.5,150.5C 72.0897,152.026 66.7564,153.859 61.5,156C 55.6837,157.409 50.517,156.242 46,152.5C 43.4628,146.146 39.6295,140.812 34.5,136.5C 37.3289,136.675 38.9955,135.342 39.5,132.5C 40.3857,133.325 40.719,134.325 40.5,135.5C 43.1834,135.227 44.6834,136.227 45,138.5C 43.1825,136.355 41.6825,136.355 40.5,138.5C 43.2046,139.568 44.7046,141.568 45,144.5C 46.8089,141.622 48.8089,138.956 51,136.5C 51.6898,139.196 53.1898,141.363 55.5,143C 53.7444,143.202 52.0777,143.702 50.5,144.5C 50.9377,145.506 51.6043,145.506 52.5,144.5C 53.9876,146.271 55.821,147.604 58,148.5C 59,147.833 60,147.167 61,146.5C 61.7083,147.381 62.5416,148.047 63.5,148.5 Z"/></g>
<g><path style="opacity:1" fill="#a9a7a3" d="M 96.5,149.5 C 90.1308,149.347 83.7974,149.68 77.5,150.5C 80.8646,148.961 84.5313,148.294 88.5,148.5C 91.3555,148.503 94.0221,148.836 96.5,149.5 Z"/></g>
<g><path style="opacity:1" fill="#c6c3c0" d="M 63.5,148.5 C 67.9645,147.567 72.2979,146.234 76.5,144.5C 77.2389,144.369 77.9056,144.536 78.5,145C 71.5226,148.603 64.1892,151.103 56.5,152.5C 50.9376,152.424 47.7709,149.757 47,144.5C 48.1411,146.609 49.6411,148.442 51.5,150C 55.8064,150.912 59.8064,150.412 63.5,148.5 Z"/></g>
<g><path style="opacity:1" fill="#464445" d="M 121.5,158.5 C 121.338,160.527 121.505,162.527 122,164.5C 127.739,172.689 126.072,175.022 117,171.5C 116.502,168.518 116.335,165.518 116.5,162.5C 117.167,164.5 117.833,166.5 118.5,168.5C 120.1,167.318 120.433,165.985 119.5,164.5C 120.05,162.343 120.717,160.343 121.5,158.5 Z"/></g>
<g><path style="opacity:1" fill="#bdbfc0" d="M 118.5,168.5 C 119.534,169.687 120.867,170.52 122.5,171C 119.691,173.056 118.358,172.223 118.5,168.5 Z"/></g>
</svg>
